# Blender v2.92.0 OBJ File: ''
# www.blender.org
mtllib XD.mtl
o Text
v 138.888123 39.810009 -150.000900
v 165.463531 39.810009 -148.393082
v 189.486237 39.810009 -143.773422
v 211.002411 39.810009 -136.447525
v 230.058075 39.810009 -126.721054
v 246.699310 39.810009 -114.899643
v 260.972198 39.810009 -101.288925
v 272.922882 39.810009 -86.194550
v 282.597443 39.810009 -69.922150
v 290.041840 39.810009 -52.777390
v 295.302216 39.810009 -35.065872
v 298.424591 39.810009 -17.093262
v 299.455170 39.810009 0.834808
v 298.205170 39.810009 20.063797
v 294.505524 39.810009 38.885750
v 288.431366 39.810009 57.059555
v 280.058014 39.810009 74.344093
v 269.460663 39.810009 90.498215
v 256.714691 39.810009 105.280800
v 241.895172 39.810009 118.450714
v 225.077545 39.810009 129.766815
v 206.337006 39.810009 138.987991
v 185.748810 39.810009 145.873077
v 163.388184 39.810009 150.180969
v 139.330414 39.810009 151.670517
v 21.669769 39.810009 151.670517
v 21.669769 39.810009 -150.000900
v 134.022430 39.810009 112.745171
v 157.026917 39.810009 111.252808
v 177.063995 39.810009 107.035789
v 194.318085 39.810009 100.484238
v 208.973419 39.810009 91.988258
v 221.214386 39.810009 81.937973
v 231.225311 39.810009 70.723488
v 239.190338 39.810009 58.734917
v 245.293915 39.810009 46.362389
v 249.720306 39.810009 33.995995
v 252.653839 39.810009 22.025864
v 254.278839 39.810009 10.842087
v 254.779510 39.810009 0.834808
v 253.973419 39.810009 -14.097275
v 251.537750 39.810009 -28.496414
v 247.446442 39.810009 -42.216675
v 241.673309 39.810009 -55.112183
v 234.192291 39.810009 -67.037003
v 224.977264 39.810009 -77.845245
v 214.002106 39.810009 -87.391006
v 201.240753 39.810009 -95.528366
v 186.667053 39.810009 -102.111389
v 170.254883 39.810009 -106.994217
v 151.978149 39.810009 -110.030899
v 131.810760 39.810009 -111.075577
v 65.018433 39.810009 -111.075577
v 65.018433 39.810009 112.745171
v -12.832245 39.810009 151.670517
v -65.027588 39.810009 151.670517
v -167.648956 39.810009 26.932487
v -271.597321 39.810009 151.670517
v -324.234985 39.810009 151.670517
v -194.188965 39.810009 -4.473190
v -314.945984 39.810009 -150.000900
v -262.308319 39.810009 -150.000900
v -167.648956 39.810009 -34.994202
v -73.431931 39.810009 -150.000900
v -21.236572 39.810009 -150.000900
v -141.551270 39.810009 -4.473190
v 138.888123 -39.810009 -150.000900
v 165.463531 -39.810009 -148.393082
v 189.486237 -39.810009 -143.773422
v 211.002411 -39.810009 -136.447525
v 230.058075 -39.810009 -126.721054
v 246.699310 -39.810009 -114.899643
v 260.972198 -39.810009 -101.288925
v 272.922882 -39.810009 -86.194550
v 282.597443 -39.810009 -69.922150
v 290.041840 -39.810009 -52.777390
v 295.302216 -39.810009 -35.065872
v 298.424591 -39.810009 -17.093262
v 299.455170 -39.810009 0.834808
v 298.205170 -39.810009 20.063797
v 294.505524 -39.810009 38.885750
v 288.431366 -39.810009 57.059555
v 280.058014 -39.810009 74.344093
v 269.460663 -39.810009 90.498215
v 256.714691 -39.810009 105.280800
v 241.895172 -39.810009 118.450714
v 225.077545 -39.810009 129.766815
v 206.337006 -39.810009 138.987991
v 185.748810 -39.810009 145.873077
v 163.388184 -39.810009 150.180969
v 139.330414 -39.810009 151.670517
v 21.669769 -39.810009 151.670517
v 21.669769 -39.810009 -150.000900
v 134.022430 -39.810009 112.745171
v 157.026917 -39.810009 111.252808
v 177.063995 -39.810009 107.035789
v 194.318085 -39.810009 100.484238
v 208.973419 -39.810009 91.988258
v 221.214386 -39.810009 81.937973
v 231.225311 -39.810009 70.723488
v 239.190338 -39.810009 58.734917
v 245.293915 -39.810009 46.362389
v 249.720306 -39.810009 33.995995
v 252.653839 -39.810009 22.025864
v 254.278839 -39.810009 10.842087
v 254.779510 -39.810009 0.834808
v 253.973419 -39.810009 -14.097275
v 251.537750 -39.810009 -28.496414
v 247.446442 -39.810009 -42.216675
v 241.673309 -39.810009 -55.112183
v 234.192291 -39.810009 -67.037003
v 224.977264 -39.810009 -77.845245
v 214.002106 -39.810009 -87.391006
v 201.240753 -39.810009 -95.528366
v 186.667053 -39.810009 -102.111389
v 170.254883 -39.810009 -106.994217
v 151.978149 -39.810009 -110.030899
v 131.810760 -39.810009 -111.075577
v 65.018433 -39.810009 -111.075577
v 65.018433 -39.810009 112.745171
v -12.832245 -39.810009 151.670517
v -65.027588 -39.810009 151.670517
v -167.648956 -39.810009 26.932487
v -271.597321 -39.810009 151.670517
v -324.234985 -39.810009 151.670517
v -194.188965 -39.810009 -4.473190
v -314.945984 -39.810009 -150.000900
v -262.308319 -39.810009 -150.000900
v -167.648956 -39.810009 -34.994202
v -73.431931 -39.810009 -150.000900
v -21.236572 -39.810009 -150.000900
v -141.551270 -39.810009 -4.473190
v -12.832245 -39.810009 151.670517
v -12.832245 39.810009 151.670517
v -65.027588 -39.810009 151.670517
v -65.027588 39.810009 151.670517
v -167.648956 -39.810009 26.932487
v -167.648956 39.810009 26.932487
v -271.597321 -39.810009 151.670517
v -271.597321 39.810009 151.670517
v -324.234985 -39.810009 151.670517
v -324.234985 39.810009 151.670517
v -194.188965 -39.810009 -4.473190
v -194.188965 39.810009 -4.473190
v -314.945984 -39.810009 -150.000900
v -314.945984 39.810009 -150.000900
v -262.308319 -39.810009 -150.000900
v -262.308319 39.810009 -150.000900
v -167.648956 -39.810009 -34.994202
v -167.648956 39.810009 -34.994202
v -73.431931 -39.810009 -150.000900
v -73.431931 39.810009 -150.000900
v -21.236572 -39.810009 -150.000900
v -21.236572 39.810009 -150.000900
v -141.551270 -39.810009 -4.473190
v -141.551270 39.810009 -4.473190
v 138.888123 -39.810009 -150.000900
v 138.888123 39.810009 -150.000900
v 165.463531 -39.810009 -148.393082
v 165.463531 39.810009 -148.393082
v 189.486237 -39.810009 -143.773422
v 189.486237 39.810009 -143.773422
v 211.002411 -39.810009 -136.447525
v 211.002411 39.810009 -136.447525
v 230.058075 -39.810009 -126.721054
v 230.058075 39.810009 -126.721054
v 246.699310 -39.810009 -114.899643
v 246.699310 39.810009 -114.899643
v 260.972198 -39.810009 -101.288925
v 260.972198 39.810009 -101.288925
v 272.922882 -39.810009 -86.194550
v 272.922882 39.810009 -86.194550
v 282.597443 -39.810009 -69.922150
v 282.597443 39.810009 -69.922150
v 290.041840 -39.810009 -52.777390
v 290.041840 39.810009 -52.777390
v 295.302216 -39.810009 -35.065872
v 295.302216 39.810009 -35.065872
v 298.424591 -39.810009 -17.093262
v 298.424591 39.810009 -17.093262
v 299.455170 -39.810009 0.834808
v 299.455170 39.810009 0.834808
v 298.205170 -39.810009 20.063797
v 298.205170 39.810009 20.063797
v 294.505524 -39.810009 38.885750
v 294.505524 39.810009 38.885750
v 288.431366 -39.810009 57.059555
v 288.431366 39.810009 57.059555
v 280.058014 -39.810009 74.344093
v 280.058014 39.810009 74.344093
v 269.460663 -39.810009 90.498215
v 269.460663 39.810009 90.498215
v 256.714691 -39.810009 105.280800
v 256.714691 39.810009 105.280800
v 241.895172 -39.810009 118.450714
v 241.895172 39.810009 118.450714
v 225.077545 -39.810009 129.766815
v 225.077545 39.810009 129.766815
v 206.337006 -39.810009 138.987991
v 206.337006 39.810009 138.987991
v 185.748810 -39.810009 145.873077
v 185.748810 39.810009 145.873077
v 163.388184 -39.810009 150.180969
v 163.388184 39.810009 150.180969
v 139.330414 -39.810009 151.670517
v 139.330414 39.810009 151.670517
v 21.669769 -39.810009 151.670517
v 21.669769 39.810009 151.670517
v 21.669769 -39.810009 -150.000900
v 21.669769 39.810009 -150.000900
v 134.022430 -39.810009 112.745171
v 134.022430 39.810009 112.745171
v 157.026917 -39.810009 111.252808
v 157.026917 39.810009 111.252808
v 177.063995 -39.810009 107.035789
v 177.063995 39.810009 107.035789
v 194.318085 -39.810009 100.484238
v 194.318085 39.810009 100.484238
v 208.973419 -39.810009 91.988258
v 208.973419 39.810009 91.988258
v 221.214386 -39.810009 81.937973
v 221.214386 39.810009 81.937973
v 231.225311 -39.810009 70.723488
v 231.225311 39.810009 70.723488
v 239.190338 -39.810009 58.734917
v 239.190338 39.810009 58.734917
v 245.293915 -39.810009 46.362389
v 245.293915 39.810009 46.362389
v 249.720306 -39.810009 33.995995
v 249.720306 39.810009 33.995995
v 252.653839 -39.810009 22.025864
v 252.653839 39.810009 22.025864
v 254.278839 -39.810009 10.842087
v 254.278839 39.810009 10.842087
v 254.779510 -39.810009 0.834808
v 254.779510 39.810009 0.834808
v 253.973419 -39.810009 -14.097275
v 253.973419 39.810009 -14.097275
v 251.537750 -39.810009 -28.496414
v 251.537750 39.810009 -28.496414
v 247.446442 -39.810009 -42.216675
v 247.446442 39.810009 -42.216675
v 241.673309 -39.810009 -55.112183
v 241.673309 39.810009 -55.112183
v 234.192291 -39.810009 -67.037003
v 234.192291 39.810009 -67.037003
v 224.977264 -39.810009 -77.845245
v 224.977264 39.810009 -77.845245
v 214.002106 -39.810009 -87.391006
v 214.002106 39.810009 -87.391006
v 201.240753 -39.810009 -95.528366
v 201.240753 39.810009 -95.528366
v 186.667053 -39.810009 -102.111389
v 186.667053 39.810009 -102.111389
v 170.254883 -39.810009 -106.994217
v 170.254883 39.810009 -106.994217
v 151.978149 -39.810009 -110.030899
v 151.978149 39.810009 -110.030899
v 131.810760 -39.810009 -111.075577
v 131.810760 39.810009 -111.075577
v 65.018433 -39.810009 -111.075577
v 65.018433 39.810009 -111.075577
v 65.018433 -39.810009 112.745171
v 65.018433 39.810009 112.745171
vt 0.471698 0.000000
vt 0.981132 0.000000
vt 0.490566 0.000000
vt 0.000000 0.000000
vt 0.018868 0.000000
vt 0.037736 0.000000
vt 0.056604 0.000000
vt 0.075472 0.000000
vt 0.094340 0.000000
vt 0.962264 0.000000
vt 0.943396 0.000000
vt 0.113208 0.000000
vt 1.000000 0.000000
vt 0.924528 0.000000
vt 0.905660 0.000000
vt 0.886792 0.000000
vt 0.132075 0.000000
vt 0.867925 0.000000
vt 0.849057 0.000000
vt 0.150943 0.000000
vt 0.830189 0.000000
vt 0.169811 0.000000
vt 0.811321 0.000000
vt 0.792453 0.000000
vt 0.188679 0.000000
vt 0.773585 0.000000
vt 0.207547 0.000000
vt 0.754717 0.000000
vt 0.226415 0.000000
vt 0.735849 0.000000
vt 0.716981 0.000000
vt 0.245283 0.000000
vt 0.698113 0.000000
vt 0.264151 0.000000
vt 0.679245 0.000000
vt 0.660377 0.000000
vt 0.283019 0.000000
vt 0.641509 0.000000
vt 0.301887 0.000000
vt 0.622642 0.000000
vt 0.603774 0.000000
vt 0.320755 0.000000
vt 0.584906 0.000000
vt 0.339623 0.000000
vt 0.566038 0.000000
vt 0.547170 0.000000
vt 0.358491 0.000000
vt 0.528302 0.000000
vt 0.509434 0.000000
vt 0.377358 0.000000
vt 0.396226 0.000000
vt 0.415094 0.000000
vt 0.433962 0.000000
vt 0.452830 0.000000
vt 0.454545 0.000000
vt 0.636364 0.000000
vt 0.545455 0.000000
vt 0.727273 0.000000
vt 0.909091 0.000000
vt 0.818182 0.000000
vt 1.000000 0.000000
vt 0.363636 0.000000
vt 0.181818 0.000000
vt 0.000000 0.000000
vt 0.272727 0.000000
vt 0.090909 0.000000
vt 0.981132 0.000000
vt 0.471698 0.000000
vt 0.490566 0.000000
vt 0.000000 0.000000
vt 0.018868 0.000000
vt 0.037736 0.000000
vt 0.056604 0.000000
vt 0.075472 0.000000
vt 0.094340 0.000000
vt 0.962264 0.000000
vt 0.943396 0.000000
vt 0.113208 0.000000
vt 1.000000 0.000000
vt 0.924528 0.000000
vt 0.905660 0.000000
vt 0.886792 0.000000
vt 0.132075 0.000000
vt 0.867925 0.000000
vt 0.849057 0.000000
vt 0.150943 0.000000
vt 0.830189 0.000000
vt 0.169811 0.000000
vt 0.811321 0.000000
vt 0.792453 0.000000
vt 0.188679 0.000000
vt 0.773585 0.000000
vt 0.207547 0.000000
vt 0.754717 0.000000
vt 0.226415 0.000000
vt 0.735849 0.000000
vt 0.716981 0.000000
vt 0.245283 0.000000
vt 0.698113 0.000000
vt 0.264151 0.000000
vt 0.679245 0.000000
vt 0.660377 0.000000
vt 0.283019 0.000000
vt 0.641509 0.000000
vt 0.301887 0.000000
vt 0.622642 0.000000
vt 0.603774 0.000000
vt 0.320755 0.000000
vt 0.584906 0.000000
vt 0.339623 0.000000
vt 0.566038 0.000000
vt 0.547170 0.000000
vt 0.358491 0.000000
vt 0.528302 0.000000
vt 0.509434 0.000000
vt 0.377358 0.000000
vt 0.396226 0.000000
vt 0.415094 0.000000
vt 0.433962 0.000000
vt 0.452830 0.000000
vt 0.636364 0.000000
vt 0.454545 0.000000
vt 0.545455 0.000000
vt 0.727273 0.000000
vt 0.909091 0.000000
vt 0.818182 0.000000
vt 1.000000 0.000000
vt 0.363636 0.000000
vt 0.181818 0.000000
vt 0.000000 0.000000
vt 0.272727 0.000000
vt 0.090909 0.000000
vt 0.083333 1.000000
vt 0.000000 0.000000
vt 0.000000 1.000000
vt 0.166667 1.000000
vt 0.083333 0.000000
vt 0.250000 1.000000
vt 0.166667 0.000000
vt 0.333333 1.000000
vt 0.250000 0.000000
vt 0.416667 1.000000
vt 0.333333 0.000000
vt 0.500000 1.000000
vt 0.416667 0.000000
vt 0.583333 1.000000
vt 0.500000 0.000000
vt 0.666667 1.000000
vt 0.583333 0.000000
vt 0.750000 1.000000
vt 0.666667 0.000000
vt 0.833333 1.000000
vt 0.750000 0.000000
vt 0.916667 1.000000
vt 0.833333 0.000000
vt 1.000000 1.000000
vt 0.916667 0.000000
vt 0.037037 1.000000
vt 0.000000 0.000000
vt 0.000000 1.000000
vt 0.074074 1.000000
vt 0.037037 0.000000
vt 0.111111 1.000000
vt 0.074074 0.000000
vt 0.148148 1.000000
vt 0.111111 0.000000
vt 0.185185 1.000000
vt 0.148148 0.000000
vt 0.222222 1.000000
vt 0.185185 0.000000
vt 0.259259 1.000000
vt 0.222222 0.000000
vt 0.296296 1.000000
vt 0.259259 0.000000
vt 0.333333 1.000000
vt 0.296296 0.000000
vt 0.370370 1.000000
vt 0.333333 0.000000
vt 0.407407 1.000000
vt 0.370370 0.000000
vt 0.444444 1.000000
vt 0.407407 0.000000
vt 0.481481 1.000000
vt 0.444444 0.000000
vt 0.518519 1.000000
vt 0.481481 0.000000
vt 0.555556 1.000000
vt 0.518519 0.000000
vt 0.592593 1.000000
vt 0.555556 0.000000
vt 0.629630 1.000000
vt 0.592593 0.000000
vt 0.666667 1.000000
vt 0.629630 0.000000
vt 0.703704 1.000000
vt 0.666667 0.000000
vt 0.740741 1.000000
vt 0.703704 0.000000
vt 0.777778 1.000000
vt 0.740741 0.000000
vt 0.814815 1.000000
vt 0.777778 0.000000
vt 0.851852 1.000000
vt 0.814815 0.000000
vt 0.888889 1.000000
vt 0.851852 0.000000
vt 0.925926 1.000000
vt 0.888889 0.000000
vt 0.962963 1.000000
vt 0.925926 0.000000
vt 1.000000 1.000000
vt 0.962963 0.000000
vt 0.037037 1.000000
vt 0.000000 0.000000
vt 0.000000 1.000000
vt 0.074074 1.000000
vt 0.037037 0.000000
vt 0.111111 1.000000
vt 0.074074 0.000000
vt 0.148148 1.000000
vt 0.111111 0.000000
vt 0.185185 1.000000
vt 0.148148 0.000000
vt 0.222222 1.000000
vt 0.185185 0.000000
vt 0.259259 1.000000
vt 0.222222 0.000000
vt 0.296296 1.000000
vt 0.259259 0.000000
vt 0.333333 1.000000
vt 0.296296 0.000000
vt 0.370370 1.000000
vt 0.333333 0.000000
vt 0.407407 1.000000
vt 0.370370 0.000000
vt 0.444444 1.000000
vt 0.407407 0.000000
vt 0.481481 1.000000
vt 0.444444 0.000000
vt 0.518519 1.000000
vt 0.481481 0.000000
vt 0.555556 1.000000
vt 0.518519 0.000000
vt 0.592593 1.000000
vt 0.555556 0.000000
vt 0.629630 1.000000
vt 0.592593 0.000000
vt 0.666667 1.000000
vt 0.629630 0.000000
vt 0.703704 1.000000
vt 0.666667 0.000000
vt 0.740741 1.000000
vt 0.703704 0.000000
vt 0.777778 1.000000
vt 0.740741 0.000000
vt 0.814815 1.000000
vt 0.777778 0.000000
vt 0.851852 1.000000
vt 0.814815 0.000000
vt 0.888889 1.000000
vt 0.851852 0.000000
vt 0.925926 1.000000
vt 0.888889 0.000000
vt 0.962963 1.000000
vt 0.925926 0.000000
vt 1.000000 1.000000
vt 0.962963 0.000000
vt 1.000000 0.000000
vt 1.000000 0.000000
vt 1.000000 0.000000
vn 0.0000 1.0000 0.0000
vn 0.0000 -1.0000 0.0000
vn -0.4270 0.0000 0.9042
vn 0.9044 0.0000 0.4266
vn -0.0031 0.0000 1.0000
vn 0.4241 0.0000 0.9056
vn -0.9055 0.0000 0.4243
vn -1.0000 0.0000 -0.0009
vn -0.9051 0.0000 -0.4251
vn 0.4269 0.0000 -0.9043
vn -0.0011 0.0000 -1.0000
vn -0.4279 0.0000 -0.9038
vn 0.9048 0.0000 -0.4259
vn 1.0000 0.0000 0.0007
vn 0.1249 0.0000 -0.9922
vn 0.0302 0.0000 -0.9995
vn 0.2562 0.0000 -0.9666
vn 0.3894 0.0000 -0.9210
vn 0.5182 0.0000 -0.8552
vn 0.6362 0.0000 -0.7714
vn 0.7389 0.0000 -0.6738
vn 0.8236 0.0000 -0.5671
vn 0.8902 0.0000 -0.4555
vn 0.9396 0.0000 -0.3421
vn 0.9736 0.0000 -0.2283
vn 0.9934 0.0000 -0.1144
vn 1.0000 0.0000 0.0037
vn 0.9916 0.0000 0.1291
vn 0.9668 0.0000 0.2554
vn 0.9261 0.0000 0.3772
vn 0.8699 0.0000 0.4933
vn 0.7984 0.0000 0.6020
vn 0.7124 0.0000 0.7018
vn 0.6126 0.0000 0.7903
vn 0.5010 0.0000 0.8654
vn 0.3802 0.0000 0.9249
vn 0.2537 0.0000 0.9673
vn 0.1257 0.0000 0.9920
vn 0.0309 0.0000 0.9995
vn -0.7071 0.0000 0.7071
vn -0.7071 0.0000 -0.7071
vn -0.1357 0.0000 -0.9907
vn -0.0324 0.0000 -0.9995
vn -0.2813 0.0000 -0.9596
vn -0.4297 0.0000 -0.9030
vn -0.5699 0.0000 -0.8217
vn -0.6923 0.0000 -0.7215
vn -0.7915 0.0000 -0.6112
vn -0.8666 0.0000 -0.4989
vn -0.9207 0.0000 -0.3903
vn -0.9576 0.0000 -0.2879
vn -0.9815 0.0000 -0.1911
vn -0.9953 0.0000 -0.0970
vn -1.0000 0.0000 0.0020
vn -0.9939 0.0000 0.1105
vn -0.9739 0.0000 0.2267
vn -0.9375 0.0000 0.3479
vn -0.8820 0.0000 0.4711
vn -0.8061 0.0000 0.5917
vn -0.7106 0.0000 0.7036
vn -0.5986 0.0000 0.8010
vn -0.4759 0.0000 0.8795
vn -0.3492 0.0000 0.9370
vn -0.2250 0.0000 0.9744
vn -0.1080 0.0000 0.9941
vn -0.0258 0.0000 0.9997
vn 0.7071 0.0000 0.7071
vn 0.7071 0.0000 -0.7071
usemtl None
s off
f 26/1/1 53/2/1 27/3/1
f 53/2/1 1/4/1 27/3/1
f 53/2/1 2/5/1 1/4/1
f 53/2/1 3/6/1 2/5/1
f 53/2/1 4/7/1 3/6/1
f 53/2/1 5/8/1 4/7/1
f 53/2/1 6/9/1 5/8/1
f 53/2/1 52/10/1 6/9/1
f 52/10/1 51/11/1 6/9/1
f 51/11/1 7/12/1 6/9/1
f 26/1/1 54/13/1 53/2/1
f 50/14/1 7/12/1 51/11/1
f 49/15/1 7/12/1 50/14/1
f 48/16/1 7/12/1 49/15/1
f 48/16/1 8/17/1 7/12/1
f 47/18/1 8/17/1 48/16/1
f 46/19/1 8/17/1 47/18/1
f 46/19/1 9/20/1 8/17/1
f 45/21/1 9/20/1 46/19/1
f 45/21/1 10/22/1 9/20/1
f 44/23/1 10/22/1 45/21/1
f 43/24/1 10/22/1 44/23/1
f 43/24/1 11/25/1 10/22/1
f 42/26/1 11/25/1 43/24/1
f 42/26/1 12/27/1 11/25/1
f 41/28/1 12/27/1 42/26/1
f 41/28/1 13/29/1 12/27/1
f 40/30/1 13/29/1 41/28/1
f 39/31/1 13/29/1 40/30/1
f 39/31/1 14/32/1 13/29/1
f 38/33/1 14/32/1 39/31/1
f 38/33/1 15/34/1 14/32/1
f 37/35/1 15/34/1 38/33/1
f 36/36/1 15/34/1 37/35/1
f 36/36/1 16/37/1 15/34/1
f 35/38/1 16/37/1 36/36/1
f 35/38/1 17/39/1 16/37/1
f 34/40/1 17/39/1 35/38/1
f 33/41/1 17/39/1 34/40/1
f 33/41/1 18/42/1 17/39/1
f 32/43/1 18/42/1 33/41/1
f 32/43/1 19/44/1 18/42/1
f 31/45/1 19/44/1 32/43/1
f 30/46/1 19/44/1 31/45/1
f 30/46/1 20/47/1 19/44/1
f 29/48/1 20/47/1 30/46/1
f 28/49/1 20/47/1 29/48/1
f 26/1/1 28/49/1 54/13/1
f 26/1/1 20/47/1 28/49/1
f 26/1/1 21/50/1 20/47/1
f 26/1/1 22/51/1 21/50/1
f 26/1/1 23/52/1 22/51/1
f 26/1/1 24/53/1 23/52/1
f 26/1/1 25/54/1 24/53/1
f 60/55/1 62/56/1 61/57/1
f 60/55/1 63/58/1 62/56/1
f 63/58/1 65/59/1 64/60/1
f 63/58/1 66/61/1 65/59/1
f 60/55/1 66/61/1 63/58/1
f 59/62/1 66/61/1 60/55/1
f 59/62/1 57/63/1 66/61/1
f 57/63/1 55/64/1 66/61/1
f 59/62/1 58/65/1 57/63/1
f 56/66/1 55/64/1 57/63/1
f 119/67/2 92/68/2 93/69/2
f 67/70/2 119/67/2 93/69/2
f 68/71/2 119/67/2 67/70/2
f 69/72/2 119/67/2 68/71/2
f 70/73/2 119/67/2 69/72/2
f 71/74/2 119/67/2 70/73/2
f 72/75/2 119/67/2 71/74/2
f 118/76/2 119/67/2 72/75/2
f 117/77/2 118/76/2 72/75/2
f 73/78/2 117/77/2 72/75/2
f 120/79/2 92/68/2 119/67/2
f 73/78/2 116/80/2 117/77/2
f 73/78/2 115/81/2 116/80/2
f 73/78/2 114/82/2 115/81/2
f 74/83/2 114/82/2 73/78/2
f 74/83/2 113/84/2 114/82/2
f 74/83/2 112/85/2 113/84/2
f 75/86/2 112/85/2 74/83/2
f 75/86/2 111/87/2 112/85/2
f 76/88/2 111/87/2 75/86/2
f 76/88/2 110/89/2 111/87/2
f 76/88/2 109/90/2 110/89/2
f 77/91/2 109/90/2 76/88/2
f 77/91/2 108/92/2 109/90/2
f 78/93/2 108/92/2 77/91/2
f 78/93/2 107/94/2 108/92/2
f 79/95/2 107/94/2 78/93/2
f 79/95/2 106/96/2 107/94/2
f 79/95/2 105/97/2 106/96/2
f 80/98/2 105/97/2 79/95/2
f 80/98/2 104/99/2 105/97/2
f 81/100/2 104/99/2 80/98/2
f 81/100/2 103/101/2 104/99/2
f 81/100/2 102/102/2 103/101/2
f 82/103/2 102/102/2 81/100/2
f 82/103/2 101/104/2 102/102/2
f 83/105/2 101/104/2 82/103/2
f 83/105/2 100/106/2 101/104/2
f 83/105/2 99/107/2 100/106/2
f 84/108/2 99/107/2 83/105/2
f 84/108/2 98/109/2 99/107/2
f 85/110/2 98/109/2 84/108/2
f 85/110/2 97/111/2 98/109/2
f 85/110/2 96/112/2 97/111/2
f 86/113/2 96/112/2 85/110/2
f 86/113/2 95/114/2 96/112/2
f 86/113/2 94/115/2 95/114/2
f 94/115/2 92/68/2 120/79/2
f 86/113/2 92/68/2 94/115/2
f 87/116/2 92/68/2 86/113/2
f 88/117/2 92/68/2 87/116/2
f 89/118/2 92/68/2 88/117/2
f 90/119/2 92/68/2 89/118/2
f 91/120/2 92/68/2 90/119/2
f 128/121/2 126/122/2 127/123/2
f 129/124/2 126/122/2 128/121/2
f 131/125/2 129/124/2 130/126/2
f 132/127/2 129/124/2 131/125/2
f 132/127/2 126/122/2 129/124/2
f 132/127/2 125/128/2 126/122/2
f 123/129/2 125/128/2 132/127/2
f 121/130/2 123/129/2 132/127/2
f 124/131/2 125/128/2 123/129/2
f 121/130/2 122/132/2 123/129/2
s 1
f 136/133/3 133/134/4 134/135/4
f 138/136/5 135/137/3 136/133/3
f 140/138/6 137/139/5 138/136/5
f 142/140/7 139/141/6 140/138/6
f 144/142/8 141/143/7 142/140/7
f 146/144/9 143/145/8 144/142/8
f 148/146/10 145/147/9 146/144/9
f 150/148/11 147/149/10 148/146/10
f 152/150/12 149/151/11 150/148/11
f 154/152/13 151/153/12 152/150/12
f 156/154/14 153/155/13 154/152/13
f 134/156/4 155/157/14 156/154/14
f 160/158/15 157/159/16 158/160/16
f 162/161/17 159/162/15 160/158/15
f 164/163/18 161/164/17 162/161/17
f 166/165/19 163/166/18 164/163/18
f 168/167/20 165/168/19 166/165/19
f 170/169/21 167/170/20 168/167/20
f 172/171/22 169/172/21 170/169/21
f 174/173/23 171/174/22 172/171/22
f 176/175/24 173/176/23 174/173/23
f 178/177/25 175/178/24 176/175/24
f 180/179/26 177/180/25 178/177/25
f 182/181/27 179/182/26 180/179/26
f 184/183/28 181/184/27 182/181/27
f 186/185/29 183/186/28 184/183/28
f 188/187/30 185/188/29 186/185/29
f 190/189/31 187/190/30 188/187/30
f 192/191/32 189/192/31 190/189/31
f 194/193/33 191/194/32 192/191/32
f 196/195/34 193/196/33 194/193/33
f 198/197/35 195/198/34 196/195/34
f 200/199/36 197/200/35 198/197/35
f 202/201/37 199/202/36 200/199/36
f 204/203/38 201/204/37 202/201/37
f 206/205/39 203/206/38 204/203/38
f 208/207/40 205/208/39 206/205/39
f 210/209/41 207/210/40 208/207/40
f 158/211/16 209/212/41 210/209/41
f 214/213/42 211/214/43 212/215/43
f 216/216/44 213/217/42 214/213/42
f 218/218/45 215/219/44 216/216/44
f 220/220/46 217/221/45 218/218/45
f 222/222/47 219/223/46 220/220/46
f 224/224/48 221/225/47 222/222/47
f 226/226/49 223/227/48 224/224/48
f 228/228/50 225/229/49 226/226/49
f 230/230/51 227/231/50 228/228/50
f 232/232/52 229/233/51 230/230/51
f 234/234/53 231/235/52 232/232/52
f 236/236/54 233/237/53 234/234/53
f 238/238/55 235/239/54 236/236/54
f 240/240/56 237/241/55 238/238/55
f 242/242/57 239/243/56 240/240/56
f 244/244/58 241/245/57 242/242/57
f 246/246/59 243/247/58 244/244/58
f 248/248/60 245/249/59 246/246/59
f 250/250/61 247/251/60 248/248/60
f 252/252/62 249/253/61 250/250/61
f 254/254/63 251/255/62 252/252/62
f 256/256/64 253/257/63 254/254/63
f 258/258/65 255/259/64 256/256/64
f 260/260/66 257/261/65 258/258/65
f 262/262/67 259/263/66 260/260/66
f 264/264/68 261/265/67 262/262/67
f 212/266/43 263/267/68 264/264/68
f 136/133/3 135/137/3 133/134/4
f 138/136/5 137/139/5 135/137/3
f 140/138/6 139/141/6 137/139/5
f 142/140/7 141/143/7 139/141/6
f 144/142/8 143/145/8 141/143/7
f 146/144/9 145/147/9 143/145/8
f 148/146/10 147/149/10 145/147/9
f 150/148/11 149/151/11 147/149/10
f 152/150/12 151/153/12 149/151/11
f 154/152/13 153/155/13 151/153/12
f 156/154/14 155/157/14 153/155/13
f 134/156/4 133/268/4 155/157/14
f 160/158/15 159/162/15 157/159/16
f 162/161/17 161/164/17 159/162/15
f 164/163/18 163/166/18 161/164/17
f 166/165/19 165/168/19 163/166/18
f 168/167/20 167/170/20 165/168/19
f 170/169/21 169/172/21 167/170/20
f 172/171/22 171/174/22 169/172/21
f 174/173/23 173/176/23 171/174/22
f 176/175/24 175/178/24 173/176/23
f 178/177/25 177/180/25 175/178/24
f 180/179/26 179/182/26 177/180/25
f 182/181/27 181/184/27 179/182/26
f 184/183/28 183/186/28 181/184/27
f 186/185/29 185/188/29 183/186/28
f 188/187/30 187/190/30 185/188/29
f 190/189/31 189/192/31 187/190/30
f 192/191/32 191/194/32 189/192/31
f 194/193/33 193/196/33 191/194/32
f 196/195/34 195/198/34 193/196/33
f 198/197/35 197/200/35 195/198/34
f 200/199/36 199/202/36 197/200/35
f 202/201/37 201/204/37 199/202/36
f 204/203/38 203/206/38 201/204/37
f 206/205/39 205/208/39 203/206/38
f 208/207/40 207/210/40 205/208/39
f 210/209/41 209/212/41 207/210/40
f 158/211/16 157/269/16 209/212/41
f 214/213/42 213/217/42 211/214/43
f 216/216/44 215/219/44 213/217/42
f 218/218/45 217/221/45 215/219/44
f 220/220/46 219/223/46 217/221/45
f 222/222/47 221/225/47 219/223/46
f 224/224/48 223/227/48 221/225/47
f 226/226/49 225/229/49 223/227/48
f 228/228/50 227/231/50 225/229/49
f 230/230/51 229/233/51 227/231/50
f 232/232/52 231/235/52 229/233/51
f 234/234/53 233/237/53 231/235/52
f 236/236/54 235/239/54 233/237/53
f 238/238/55 237/241/55 235/239/54
f 240/240/56 239/243/56 237/241/55
f 242/242/57 241/245/57 239/243/56
f 244/244/58 243/247/58 241/245/57
f 246/246/59 245/249/59 243/247/58
f 248/248/60 247/251/60 245/249/59
f 250/250/61 249/253/61 247/251/60
f 252/252/62 251/255/62 249/253/61
f 254/254/63 253/257/63 251/255/62
f 256/256/64 255/259/64 253/257/63
f 258/258/65 257/261/65 255/259/64
f 260/260/66 259/263/66 257/261/65
f 262/262/67 261/265/67 259/263/66
f 264/264/68 263/267/68 261/265/67
f 212/266/43 211/270/43 263/267/68
